<?xml version="1.0" encoding="utf-8"?>
<!-- Generator: Adobe Illustrator 24.0.1, SVG Export Plug-In . SVG Version: 6.00 Build 0)  -->
<svg version="1.1" id="Layer_1" xmlns="http://www.w3.org/2000/svg" xmlns:xlink="http://www.w3.org/1999/xlink" x="0px" y="0px"
	 viewBox="0 0 24 24" style="enable-background:new 0 0 24 24;" xml:space="preserve">
<style type="text/css">
	.st0{opacity:0.15;fill:url(#SVGID_1_);enable-background:new    ;}
	.st1{opacity:0.15;fill:url(#SVGID_2_);enable-background:new    ;}
	.st2{opacity:0.15;fill:url(#SVGID_3_);enable-background:new    ;}
	.st3{fill:url(#SVGID_4_);}
	.st4{opacity:0.5;fill:none;stroke:#000000;stroke-linecap:round;stroke-linejoin:round;enable-background:new    ;}
	.st5{fill:#F79E1B;}
	.st6{fill:#726198;}
</style>
<linearGradient id="SVGID_1_" gradientUnits="userSpaceOnUse" x1="202.7396" y1="783.1813" x2="202.7396" y2="540.4629" gradientTransform="matrix(4.225000e-02 0 0 -6.180000e-03 3.4343 25.8401)">
	<stop  offset="0" style="stop-color:#000000;stop-opacity:0"/>
	<stop  offset="0.5" style="stop-color:#000000"/>
	<stop  offset="1" style="stop-color:#000000;stop-opacity:0"/>
</linearGradient>
<path class="st0" d="M1.8,21h20.4v1.5H1.8V21z"/>
<radialGradient id="SVGID_2_" cx="605.714" cy="-476.648" r="117.143" gradientTransform="matrix(-1.446000e-02 0 0 -6.180000e-03 17.6142 25.8401)" gradientUnits="userSpaceOnUse">
	<stop  offset="0" style="stop-color:#000000"/>
	<stop  offset="1" style="stop-color:#000000;stop-opacity:0"/>
</radialGradient>
<path class="st1" d="M1.8,21v1.5c-0.7,0-1.8-0.3-1.8-0.8S0.8,21,1.8,21z"/>
<radialGradient id="SVGID_3_" cx="605.714" cy="-476.648" r="117.143" gradientTransform="matrix(1.446000e-02 0 0 -6.180000e-03 20.3858 25.8401)" gradientUnits="userSpaceOnUse">
	<stop  offset="0" style="stop-color:#000000"/>
	<stop  offset="1" style="stop-color:#000000;stop-opacity:0"/>
</radialGradient>
<path class="st2" d="M22.2,21v1.5c0.7,0,1.8-0.3,1.8-0.8S23.2,21,22.2,21z"/>
<linearGradient id="SVGID_4_" gradientUnits="userSpaceOnUse" x1="30.43" y1="24.723" x2="30.43" y2="7.315" gradientTransform="matrix(1 0 0 -1 -18.43 28.723)">
	<stop  offset="0" style="stop-color:#333333"/>
	<stop  offset="1" style="stop-color:#1A1A1A"/>
</linearGradient>
<path class="st3" d="M2,4.5H22c0.8,0,1.5,0.7,1.5,1.5v14c0,0.8-0.7,1.5-1.5,1.5H2c-0.8,0-1.5-0.7-1.5-1.5V6C0.5,5.2,1.2,4.5,2,4.5z"
	/>
<path class="st4" d="M2,4.5H22c0.8,0,1.5,0.7,1.5,1.5v14c0,0.8-0.7,1.5-1.5,1.5H2c-0.8,0-1.5-0.7-1.5-1.5V6C0.5,5.2,1.2,4.5,2,4.5z"
	/>
<path class="st5" d="M0,0"/>
<g>
	
		<image style="overflow:visible;opacity:0.1;" width="45" height="46" xlink:href="E14C313F.png"  transform="matrix(1 0 0 1 -3 -3)">
	</image>
	<g>
		<g>
			<path class="st6" d="M9.8,14.3l0.4-0.4v-2.1c0-0.2-0.4-0.2-0.5-0.1c-0.1,0-0.3,0-0.3,0s0.6-0.5,1.5-1.2c0.2,0,0.1,0.2,0.1,0.2
				c0,0-0.2,0.2-0.2,0.3v1.5v0.1H11c0,0,1.4-0.9,2.3-1.5c0.1-0.2-0.1-0.3-0.2-0.4c0,0-0.2-0.1-0.1-0.2c0.1-0.1,0.4,0.1,1.2,0.8
				c0,0,0.2,0.1,0,0.2c-0.1,0-0.2-0.1-0.3,0c0,0-2.3,1.3-2.4,1.4c0,0,1.4,0.4,3,0.8c0,0,0.3,0.1,0.3,0.5s0,0.7-0.4,0.8
				c0,0-4.3,0-4.5,0c-0.2,0-0.2,0.2-0.3,0.3c-0.1,0-0.6-0.5-0.9-1.3c0-0.1,0.2-0.2,0.4,0c0.1,0.2,0.2,0.4,0.6,0.5c0,0,3.7,0,4.2,0
				c0.4,0,0.3-0.2,0-0.2c-0.3-0.1-2.6-0.7-2.8-0.8c-0.2,0-0.2,0-0.3,0v0.4l0.5,0.5L9.8,14.3z"/>
			<polygon class="st6" points="16.5,12.5 17.3,11.2 16.5,10.1 15.7,11 			"/>
			<polygon class="st6" points="12.4,8.5 13.7,7.6 14.8,8.3 14,9.2 			"/>
			<path class="st6" d="M15.6,10.8l0.8-0.9c0,0-0.9-1.3-1.4-1.5l-0.8,0.9C14.2,9.3,15.6,10.6,15.6,10.8"/>
			<polygon class="st6" points="14.9,8.1 16.1,7.3 14.5,6.6 13.8,7.5 			"/>
			<polygon class="st6" points="16.7,10 17.4,10.9 18.3,9.7 17.6,8.4 			"/>
			<polygon class="st6" points="7.6,12.6 6.8,11.2 7.6,10.2 8.4,11 			"/>
			<polygon class="st6" points="11.8,8.5 10.5,7.6 9.3,8.3 10.1,9.2 			"/>
			<path class="st6" d="M8.5,10.8L7.7,9.9c0,0,0.9-1.3,1.4-1.5l0.8,0.9C10,9.4,8.6,10.7,8.5,10.8"/>
			<polygon class="st6" points="9.3,8.1 8,7.3 9.6,6.6 10.3,7.5 			"/>
			<polygon class="st6" points="7.4,10 6.7,10.9 5.8,9.7 6.5,8.4 			"/>
			<polygon class="st6" points="7.5,13.8 6.8,15.1 7.5,16.2 8.4,15.4 			"/>
			<polygon class="st6" points="11.7,17.9 10.4,18.8 9.3,18 10.1,17.2 			"/>
			<path class="st6" d="M8.5,15.6l-0.8,0.9c0,0,0.9,1.3,1.4,1.5L9.9,17C9.9,17.1,8.6,15.7,8.5,15.6"/>
			<polygon class="st6" points="9.3,18.2 7.9,19.1 9.5,19.8 10.3,18.9 			"/>
			<polygon class="st6" points="7.4,16.4 6.7,15.5 5.8,16.7 6.5,18 			"/>
			<polygon class="st6" points="16.5,13.8 17.3,15.1 16.5,16.2 15.7,15.4 			"/>
			<polygon class="st6" points="12.3,17.9 13.6,18.7 14.7,18 14,17.2 			"/>
			<path class="st6" d="M15.6,15.5l0.8,0.9c0,0-0.9,1.3-1.4,1.5L14.1,17C14.1,17,15.5,15.7,15.6,15.5"/>
			<polygon class="st6" points="14.8,18.2 16.1,19.1 14.5,19.8 13.7,18.9 			"/>
			<polygon class="st6" points="16.7,16.4 17.4,15.5 18.3,16.7 17.5,18 			"/>
			<polygon class="st6" points="12,5.6 12.8,6.7 12,8 11.2,6.7 			"/>
			<polygon class="st6" points="12,20.8 12.9,19.7 12.1,18.2 11.2,19.7 			"/>
			<polygon class="st6" points="19.1,13.3 18.1,14 16.7,13.2 18.1,12.5 			"/>
			<polygon class="st6" points="5.1,13.3 6.1,14 7.5,13.2 6.2,12.5 			"/>
		</g>
	</g>
</g>
</svg>
